<svg width="120" height="40" viewBox="0 0 120 40" fill="none" xmlns="http://www.w3.org/2000/svg">
<rect width="120" height="40" rx="5" fill="black"/>
<path d="M42.3307 27.1396H37.5973L36.4606 30.4961H34.4557L38.9391 18.0781H41.0221L45.5055 30.4961H43.4664L42.3307 27.1396ZM38.0875 25.5908H41.8395L39.9899 20.1435H39.9382L38.0875 25.5908ZM55.1881 25.9697C55.1881 28.7832 53.6823 30.5908 51.4098 30.5908C50.2352 30.6523 49.1288 30.037 48.5612 29.0068H48.5182V33.4912H46.6598V21.4424H48.4586V22.9482H48.4928C49.0856 21.9245 50.1932 21.3095 51.3756 21.3476C53.6734 21.3477 55.1881 23.1641 55.1881 25.9697ZM53.278 25.9697C53.278 24.1367 52.3307 22.9316 50.8854 22.9316C49.4655 22.9316 48.5104 24.1621 48.5104 25.9697C48.5104 27.7939 49.4655 29.0156 50.8854 29.0156C52.3307 29.0156 53.278 27.8193 53.278 25.9697ZM65.153 25.9697C65.153 28.7832 63.6471 30.5908 61.3746 30.5908C60.2 30.6523 59.0936 30.037 58.526 29.0068H58.483V33.4912H56.6246V21.4424H58.4234V22.9482H58.4576C59.0504 21.9245 60.158 21.3095 61.3404 21.3477C63.6383 21.3477 65.153 23.1641 65.153 25.9697ZM63.2428 25.9697C63.2428 24.1367 62.2955 22.9316 60.8502 22.9316C59.4303 22.9316 58.4752 24.1621 58.4752 25.9697C58.4752 27.7939 59.4303 29.0156 60.8502 29.0156C62.2955 29.0156 63.2428 27.8193 63.2428 25.9697H63.2428ZM71.7389 27.0361C71.8766 28.2676 73.0729 29.0761 74.7077 29.0761C76.2741 29.0761 77.401 28.2675 77.401 27.1572C77.401 26.1933 76.7213 25.6162 75.112 25.2207L73.5026 24.833C71.2223 24.2822 70.1637 23.2158 70.1637 21.4853C70.1637 19.3427 72.0309 17.871 74.6823 17.871C77.3063 17.871 79.1051 19.3427 79.1657 21.4853H77.2897C77.1774 20.246 76.1529 19.498 74.6559 19.498C73.1588 19.498 72.1344 20.2548 72.1344 21.3564C72.1344 22.2343 72.7887 22.7509 74.3893 23.1464L75.7574 23.4823C78.3053 24.0849 79.3639 25.1083 79.3639 26.9247C79.3639 29.248 77.5133 30.703 74.5699 30.703C71.816 30.703 69.9567 29.2821 69.8365 27.036L71.7389 27.0361ZM83.3746 19.2998V21.4424H85.0963V22.9141H83.3746V27.9053C83.3746 28.6807 83.7194 29.042 84.4762 29.042C84.6806 29.0384 84.8847 29.0241 85.0875 28.999V30.4619C84.7473 30.5255 84.4014 30.5542 84.0553 30.5478C82.2223 30.5478 81.5075 29.8593 81.5075 28.1035V22.9141H80.1911V21.4424H81.5074V19.2998H83.3746ZM86.0934 25.9697C86.0934 23.1211 87.7712 21.3311 90.3874 21.3311C93.0124 21.3311 94.6823 23.1211 94.6823 25.9697C94.6823 28.8262 93.0212 30.6084 90.3874 30.6084C87.7545 30.6084 86.0934 28.8262 86.0934 25.9697ZM92.7887 25.9697C92.7887 24.0156 91.8932 22.8623 90.3874 22.8623C88.8815 22.8623 87.987 24.0244 87.987 25.9697C87.987 27.9316 88.8815 29.0762 90.3874 29.0762C91.8932 29.0762 92.7887 27.9316 92.7887 25.9697H92.7887ZM96.2145 21.4424H97.987V22.9834H98.03C98.2771 21.9914 99.1861 21.3086 100.208 21.3476C100.422 21.3469 100.635 21.3701 100.844 21.417V23.1553C100.574 23.0726 100.292 23.0347 100.009 23.043C99.4631 23.0208 98.9343 23.2385 98.562 23.639C98.1897 24.0395 98.011 24.5827 98.0729 25.126V30.4961H96.2145L96.2145 21.4424ZM109.413 27.8369C109.163 29.4805 107.562 30.6084 105.514 30.6084C102.881 30.6084 101.246 28.8437 101.246 26.0127C101.246 23.1728 102.889 21.331 105.436 21.331C107.941 21.331 109.516 23.0517 109.516 25.7969V26.4336H103.122V26.5459C103.062 27.2199 103.295 27.8871 103.761 28.3778C104.227 28.8684 104.881 29.1352 105.557 29.1103C106.459 29.1948 107.309 28.677 107.648 27.8369L109.413 27.8369ZM103.13 25.1348L107.657 25.1348C107.691 24.5291 107.47 23.9368 107.049 23.5006C106.627 23.0644 106.043 22.8239 105.436 22.8369C104.825 22.8333 104.238 23.0739 103.805 23.5054C103.372 23.9369 103.129 24.5235 103.13 25.1348Z" fill="white"/>
<path d="M37.8546 8.731C38.6436 8.67438 39.4163 8.97454 39.9602 9.54887C40.5041 10.1232 40.7617 10.9111 40.6622 11.6958C40.6622 13.6021 39.632 14.6978 37.8546 14.6978H35.6994V8.731H37.8546ZM36.6261 13.854H37.7511C38.3149 13.8877 38.8639 13.6656 39.2457 13.2492C39.6274 12.8329 39.8012 12.2668 39.7189 11.708C39.7952 11.1515 39.6189 10.59 39.2381 10.1771C38.8573 9.76422 38.3119 9.54308 37.7511 9.57421H36.6261V13.854ZM41.7091 12.4443C41.6319 11.6372 42.0189 10.8561 42.7079 10.4286C43.3968 10.0011 44.2685 10.0011 44.9574 10.4286C45.6464 10.8561 46.0334 11.6372 45.9562 12.4443C46.0349 13.2523 45.6482 14.0349 44.9587 14.4634C44.2691 14.8918 43.3962 14.8918 42.7066 14.4634C42.0171 14.0349 41.6304 13.2523 41.7091 12.4443ZM45.0421 12.4443C45.0421 11.4683 44.6036 10.8975 43.8341 10.8975C43.0617 10.8975 42.6271 11.4683 42.6271 12.4443C42.6271 13.4282 43.0617 13.9946 43.8341 13.9946C44.6037 13.9946 45.0421 13.4243 45.0421 12.4443H45.0421ZM51.6017 14.6977H50.6798L49.7492 11.3813H49.6789L48.7521 14.6977H47.839L46.5978 10.1948H47.4992L48.3058 13.6308H48.3722L49.298 10.1948H50.1505L51.0763 13.6308H51.1466L51.9494 10.1948H52.838L51.6017 14.6977ZM53.882 10.1948H54.7374V10.9101H54.8038C55.0348 10.3835 55.5744 10.0613 56.1476 10.1079C56.5914 10.0745 57.0263 10.2448 57.3295 10.5706C57.6327 10.8964 57.7713 11.3424 57.7062 11.7827V14.6977H56.8175V12.0059C56.8175 11.2822 56.5031 10.9224 55.8458 10.9224C55.5448 10.9083 55.2527 11.0265 55.046 11.2458C54.8393 11.4651 54.7387 11.7638 54.7706 12.0635V14.6977H53.882L53.882 10.1948ZM59.1222 8.437H60.0109V14.6977H59.1222V8.437ZM61.2462 12.4443C61.1691 11.6372 61.5561 10.856 62.2451 10.4285C62.9341 10.001 63.8059 10.001 64.4949 10.4285C65.1839 10.856 65.5709 11.6372 65.4938 12.4443C65.5724 13.2523 65.1856 14.035 64.4961 14.4634C63.8065 14.8918 62.9335 14.8918 62.244 14.4634C61.5544 14.035 61.1676 13.2523 61.2462 12.4443ZM64.5792 12.4443C64.5792 11.4683 64.1407 10.8975 63.3712 10.8975C62.5988 10.8975 62.1642 11.4683 62.1642 12.4443C62.1642 13.4282 62.5988 13.9946 63.3712 13.9946C64.1408 13.9946 64.5792 13.4243 64.5792 12.4443H64.5792ZM66.4293 13.4243C66.4293 12.6138 67.0329 12.1465 68.1041 12.0801L69.3239 12.0098V11.6211C69.3239 11.1455 69.0094 10.877 68.402 10.877C67.9059 10.877 67.5622 11.0591 67.4635 11.3774H66.6032C66.694 10.604 67.4215 10.1079 68.443 10.1079C69.5719 10.1079 70.2086 10.6699 70.2086 11.6211V14.6978H69.3532V14.0649H69.2829C68.9923 14.5271 68.4756 14.7972 67.9303 14.7719C67.548 14.8117 67.1668 14.6879 66.8808 14.4311C66.5949 14.1744 66.4308 13.8086 66.4293 13.4243ZM69.3239 13.0395V12.6631L68.2243 12.7334C67.6041 12.7749 67.3229 12.9858 67.3229 13.3828C67.3229 13.7881 67.6744 14.0239 68.1579 14.0239C68.4441 14.0529 68.7298 13.9645 68.9496 13.7789C69.1693 13.5934 69.3044 13.3265 69.3239 13.0395ZM71.3766 12.4443C71.3766 11.0215 72.108 10.1201 73.2457 10.1201C73.8202 10.0936 74.3583 10.4015 74.6266 10.9101H74.693V8.437H75.5817V14.6977H74.7301V13.9863H74.6598C74.3712 14.4907 73.8265 14.7934 73.2457 14.7719C72.1002 14.772 71.3766 13.8706 71.3766 12.4443ZM72.2946 12.4443C72.2946 13.3994 72.7448 13.9741 73.4977 13.9741C74.2467 13.9741 74.7096 13.3911 74.7096 12.4482C74.7096 11.5098 74.2419 10.9185 73.4977 10.9185C72.7496 10.9185 72.2946 11.4971 72.2946 12.4443H72.2946ZM79.2584 12.4443C79.1812 11.6372 79.5682 10.8561 80.2572 10.4286C80.9461 10.0011 81.8178 10.0011 82.5068 10.4286C83.1957 10.8561 83.5827 11.6372 83.5055 12.4443C83.5842 13.2523 83.1975 14.0349 82.508 14.4634C81.8184 14.8918 80.9455 14.8918 80.256 14.4634C79.5664 14.0349 79.1798 13.2523 79.2584 12.4443ZM82.5914 12.4443C82.5914 11.4683 82.153 10.8975 81.3834 10.8975C80.611 10.8975 80.1764 11.4683 80.1764 12.4443C80.1764 13.4282 80.611 13.9946 81.3834 13.9946C82.153 13.9946 82.5914 13.4243 82.5914 12.4443ZM84.6979 10.1948H85.5534V10.9101H85.6198C85.8507 10.3835 86.3903 10.0613 86.9635 10.1079C87.4073 10.0745 87.8422 10.2448 88.1454 10.5706C88.4487 10.8964 88.5872 11.3424 88.5221 11.7827V14.6977H87.6334V12.0059C87.6334 11.2822 87.319 10.9224 86.6618 10.9224C86.3607 10.9083 86.0686 11.0265 85.8619 11.2458C85.6552 11.4651 85.5547 11.7638 85.5866 12.0635V14.6977H84.6979V10.1948ZM93.5436 9.07373V10.2153H94.5192V10.9639H93.5436V13.2793C93.5436 13.751 93.7379 13.9575 94.1803 13.9575C94.2936 13.9572 94.4067 13.9503 94.5192 13.937V14.6772C94.3596 14.7058 94.1979 14.721 94.0358 14.7226C93.0475 14.7226 92.6539 14.375 92.6539 13.5068V10.9638H91.9391V10.2153H92.6539V9.07373H93.5436ZM95.733 8.437H96.6139V10.9184H96.6842C96.9262 10.3872 97.4753 10.0646 98.0572 10.1118C98.4985 10.0878 98.9275 10.2618 99.2274 10.5864C99.5273 10.9111 99.6668 11.3525 99.608 11.7905V14.6977H98.7184V12.0097C98.7184 11.2905 98.3834 10.9262 97.7555 10.9262C97.4464 10.9009 97.1418 11.0133 96.9232 11.2334C96.7046 11.4535 96.5943 11.7589 96.6218 12.0678V14.6977H95.7331L95.733 8.437ZM104.79 13.4819C104.54 14.3313 103.719 14.8801 102.839 14.7847C102.238 14.8005 101.661 14.5516 101.26 14.1041C100.86 13.6565 100.676 13.0555 100.758 12.4604C100.679 11.8638 100.861 11.2618 101.26 10.8104C101.658 10.3591 102.233 10.1028 102.835 10.1079C104.088 10.1079 104.843 10.9639 104.843 12.3779V12.688H101.664V12.7378C101.636 13.0719 101.75 13.4024 101.978 13.648C102.206 13.8936 102.528 14.0315 102.863 14.0278C103.298 14.08 103.721 13.8643 103.934 13.4819L104.79 13.4819ZM101.664 12.0308H103.938C103.961 11.7252 103.853 11.4242 103.642 11.2021C103.431 10.9799 103.136 10.8572 102.83 10.8643C102.519 10.8604 102.22 10.982 102.001 11.2016C101.781 11.4213 101.66 11.7202 101.664 12.0308H101.664Z" fill="white"/>
<path d="M24.7973 20.3007C24.8192 18.6042 25.7086 17.0372 27.1539 16.1486C26.2379 14.8405 24.7588 14.0409 23.1627 13.9909C21.4835 13.8147 19.8555 14.9958 18.9998 14.9958C18.1275 14.9958 16.81 14.0084 15.3913 14.0376C13.5246 14.0979 11.8266 15.1335 10.9184 16.7655C8.98439 20.1139 10.427 25.035 12.2796 27.7416C13.2065 29.0669 14.2898 30.5474 15.7072 30.4949C17.0943 30.4373 17.6123 29.6104 19.2866 29.6104C20.9454 29.6104 21.4314 30.4949 22.8776 30.4615C24.366 30.4373 25.3038 29.1303 26.1981 27.7924C26.8641 26.848 27.3766 25.8043 27.7166 24.6998C25.9488 23.9522 24.7994 22.22 24.7973 20.3007ZM22.0657 12.2109C22.8772 11.2367 23.277 9.9845 23.1802 8.72027C21.9404 8.85049 20.7951 9.44305 19.9726 10.3799C19.1605 11.3042 18.749 12.5134 18.8289 13.7413C20.0854 13.7542 21.2783 13.1902 22.0657 12.2109Z" fill="white"/>
</svg>
