<svg width="64" height="64" viewBox="0 0 64 64" fill="none" xmlns="http://www.w3.org/2000/svg">
<g clip-path="url(#clip0)">
<path d="M27.6846 42.771C27.5462 42.7155 27.3961 42.6952 27.2478 42.7121L20.5508 43.4746L21.4316 37.1236C21.4544 36.9592 21.4313 36.7917 21.3648 36.6397C20.7445 35.22 20.4 33.6514 20.4 32C20.4 25.5935 25.5935 20.4 32 20.4C38.4065 20.4 43.6 25.5935 43.6 32C43.6 38.4065 38.4065 43.6 32 43.6C30.4732 43.6 29.0174 43.3055 27.6846 42.771Z" stroke="#00140F" stroke-width="1.8" stroke-linecap="round" stroke-linejoin="round"/>
<path d="M30.4471 34.4435H31.838C31.838 32.4555 36.375 33.9041 36.375 30.2209C36.375 27.6781 34.7006 27 31.4059 27C30.2716 27 28.7323 27.1079 27.625 27.2774V29.1729C28.6377 29.0034 30.0285 28.8493 30.9333 28.8493C33.6744 28.8493 34.4441 29.1267 34.4441 30.4058C34.4441 32.1935 30.4336 31.0993 30.4336 34.1199C30.4336 34.2277 30.4336 34.3202 30.4471 34.4435ZM31.1223 38.25C31.784 38.25 32.2431 37.7568 32.2431 37.0479C32.2431 36.3545 31.7569 35.8613 31.1223 35.8613C30.5012 35.8613 30.015 36.3545 30.015 37.0479C30.015 37.7568 30.5012 38.25 31.1223 38.25Z" fill="#00140F"/>
</g>
<defs>
<clipPath id="clip0">
<path d="M17 17H47V47H17V17Z" fill="white"/>
</clipPath>
</defs>
</svg>
