<?xml version="1.0" encoding="UTF-8"?>
<svg width="340px" height="4px" viewBox="0 0 340 4" version="1.1" xmlns="http://www.w3.org/2000/svg" xmlns:xlink="http://www.w3.org/1999/xlink">
    <!-- Generator: Sketch 60.1 (88133) - https://sketch.com -->
    <title>Fill 13</title>
    <desc>Created with Sketch.</desc>
    <g id="Home" stroke="none" stroke-width="1" fill="none" fill-rule="evenodd" opacity="0.2">
        <g id="Shake_Pricing_v2" transform="translate(-780.000000, -820.000000)" fill="#515F6B">
            <g id="Premium" transform="translate(740.000000, 496.000000)">
                <path d="M354.38372,327.197991 C351.763634,326.76811 347.511504,326.510986 343.009249,326.510986 C338.506036,326.510986 334.253906,326.76811 331.632861,327.197991 C328.529774,327.707721 323.860769,328 318.82568,328 C313.789632,328 309.121585,327.707721 306.01754,327.197991 C303.397453,326.76811 299.144365,326.510986 294.64211,326.510986 C290.138896,326.510986 285.886767,326.76811 283.265722,327.197991 C280.162635,327.707721 275.494588,328 270.45854,328 C265.422493,328 260.754446,327.707721 257.650401,327.197991 C255.030314,326.76811 250.778184,326.510986 246.274971,326.510986 C241.772716,326.510986 237.520586,326.76811 234.9005,327.197991 C231.796454,327.707721 227.127449,328 222.09236,328 C217.056312,328 212.388265,327.707721 209.28422,327.197991 C206.664134,326.76811 202.411045,326.510986 197.90879,326.510986 C193.405577,326.510986 189.153447,326.76811 186.53336,327.197991 C183.429315,327.707721 178.76031,328 173.725221,328 C168.689173,328 164.021126,327.707721 160.917081,327.197991 C158.296995,326.76811 154.043906,326.510986 149.541651,326.510986 C145.038438,326.510986 140.786308,326.76811 138.166221,327.197991 C135.062176,327.707721 130.394129,328 125.358082,328 C120.322034,328 115.654083,327.707721 112.550421,327.197991 C109.929951,326.76811 105.677246,326.510986 101.174608,326.510986 C96.6719695,326.510986 92.4196479,326.76811 89.7996574,327.197991 C86.6953246,327.707721 82.0267984,328 76.9910384,328 C71.9553743,328 67.2872314,327.707721 64.1834737,327.197991 C61.5630998,326.76811 57.3103949,326.510986 52.8076606,326.510986 C48.3050221,326.510986 44.0527005,326.76811 41.43271,327.197991 L40,324.802009 C43.1037577,324.292279 47.7719006,324 52.8076606,324 C57.8433247,324 62.5118509,324.292279 65.615992,324.802009 C68.2361742,325.232392 72.4884958,325.489014 76.9910384,325.489014 C81.4937728,325.489014 85.7464777,325.232392 88.3671391,324.802009 C91.4707051,324.292279 96.138848,324 101.174608,324 C106.210272,324 110.878798,324.292279 113.982939,324.802009 C116.602738,325.232392 120.855826,325.489014 125.358082,325.489014 C129.860337,325.489014 134.113425,325.232392 136.73447,324.802009 C139.837557,324.292279 144.505604,324 149.541651,324 C154.57674,324 159.245746,324.292279 162.349791,324.802009 C164.969877,325.232392 169.222007,325.489014 173.725221,325.489014 C178.227476,325.489014 182.480564,325.232392 185.10065,324.802009 C188.204696,324.292279 192.872743,324 197.90879,324 C202.943879,324 207.612885,324.292279 210.71693,324.802009 C213.337016,325.232392 217.589146,325.489014 222.09236,325.489014 C226.594615,325.489014 230.847703,325.232392 233.46779,324.802009 C236.571835,324.292279 241.239882,324 246.274971,324 C251.311018,324 255.979065,324.292279 259.083111,324.802009 C261.703197,325.232392 265.956285,325.489014 270.45854,325.489014 C274.960796,325.489014 279.213884,325.232392 281.83397,324.802009 C284.938015,324.292279 289.606063,324 294.64211,324 C299.678157,324 304.346205,324.292279 307.449291,324.802009 C310.070336,325.232392 314.322466,325.489014 318.82568,325.489014 C323.327935,325.489014 327.580065,325.232392 330.200151,324.802009 C333.305155,324.292279 337.973202,324 343.009249,324 C348.044338,324 352.713344,324.292279 355.81643,324.802009 C358.437475,325.232392 362.689605,325.489014 367.192819,325.489014 C371.695074,325.489014 375.947204,325.232392 378.56729,324.802009 L380,327.197991 C376.895955,327.707721 372.227908,328 367.192819,328 C362.156771,328 357.488724,327.707721 354.38372,327.197991 Z" id="Fill-13"></path>
            </g>
        </g>
    </g>
</svg>