<svg width="64" height="64" viewBox="0 0 64 64" fill="none" xmlns="http://www.w3.org/2000/svg">
<path d="M36.4284 27.7393L36.6435 28.2542L37.2003 28.2905L47.3755 28.9537C47.4121 28.9561 47.4255 28.9662 47.4319 28.9715C47.4425 28.9803 47.4561 28.9974 47.4643 29.0234C47.4725 29.0494 47.4713 29.0713 47.4676 29.0845C47.4654 29.0926 47.4602 29.1085 47.4316 29.1315L39.6364 35.3926L39.1817 35.7579L39.3293 36.3222L41.8218 45.8467C41.8308 45.881 41.8258 45.897 41.8227 45.9052C41.8178 45.9182 41.8062 45.9363 41.7849 45.9521C41.7637 45.968 41.7431 45.9741 41.7292 45.9751C41.7205 45.9758 41.7038 45.976 41.6734 45.9577L32.965 40.7019L32.5 40.4212L32.035 40.7019L23.3266 45.9577C23.2962 45.976 23.2795 45.9758 23.2708 45.9751C23.2569 45.9741 23.2363 45.968 23.2151 45.9521C23.1938 45.9363 23.1822 45.9182 23.1773 45.9052C23.1742 45.897 23.1692 45.881 23.1782 45.8467L25.6707 36.3222L25.8183 35.7579L25.3636 35.3926L17.5684 29.1315C17.5398 29.1085 17.5346 29.0926 17.5324 29.0846C17.5287 29.0713 17.5275 29.0494 17.5357 29.0234C17.5439 28.9974 17.5575 28.9803 17.5681 28.9715C17.5745 28.9662 17.5879 28.9561 17.6245 28.9537L27.7997 28.2905L28.3565 28.2542L28.5716 27.7393L32.4077 18.5559C32.4211 18.5238 32.4345 18.514 32.4422 18.5092C32.454 18.5017 32.474 18.4944 32.5 18.4944C32.526 18.4944 32.546 18.5017 32.5578 18.5092C32.5655 18.514 32.5789 18.5238 32.5923 18.5559L36.4284 27.7393Z" stroke="#00140F" stroke-width="1.8"/>
</svg>
